<svg xmlns="http://www.w3.org/2000/svg" viewBox="0 0 64 64" role="img" aria-labelledby="title">
  <title>Saruê das Promo</title>
  <rect width="64" height="64" rx="14" fill="#050505"/>
  <circle cx="32" cy="32" r="22" fill="#ffcf24" opacity="0.18"/>
  <path d="M22 38c0-7 4.9-12 10-12 5.3 0 10 5 10 12 0 2.7-1.2 5.1-3.2 6.9l3.2 7.1-6.4-3.7a13.6 13.6 0 0 1-7.2 0L22 52l3.2-7.1A9.2 9.2 0 0 1 22 38Z" fill="#ffcf24"/>
  <circle cx="27" cy="24" r="4" fill="#ffcf24"/>
  <circle cx="37" cy="24" r="4" fill="#ffcf24"/>
  <circle cx="22" cy="30" r="3.2" fill="#ffcf24"/>
  <circle cx="42" cy="30" r="3.2" fill="#ffcf24"/>
</svg>
